<svg width="70" height="65" viewBox="0 0 70 65" fill="none" xmlns="http://www.w3.org/2000/svg">
<path fill-rule="evenodd" clip-rule="evenodd" d="M35 1C16.215 1 1 15.4528 1 33.2968C1 47.5881 10.7325 59.659 24.2475 63.9383C25.9475 64.2209 26.585 63.252 26.585 62.4042C26.585 61.6372 26.5425 59.0938 26.5425 56.3889C18 57.8827 15.79 54.4108 15.11 52.5941C14.7275 51.6655 13.07 48.7992 11.625 48.0322C10.435 47.4266 8.735 45.9329 11.5825 45.8925C14.26 45.8521 16.1725 48.234 16.81 49.2029C19.87 54.0878 24.7575 52.7152 26.7125 51.8674C27.01 49.7681 27.9025 48.3551 28.88 47.5477C21.315 46.7403 13.41 43.9547 13.41 31.6012C13.41 28.0889 14.7275 25.1822 16.895 22.9214C16.555 22.114 15.365 18.8036 17.235 14.3628C17.235 14.3628 20.0825 13.515 26.585 17.6732C29.305 16.9465 32.195 16.5832 35.085 16.5832C37.975 16.5832 40.865 16.9465 43.585 17.6732C50.0875 13.4746 52.935 14.3628 52.935 14.3628C54.805 18.8036 53.615 22.114 53.275 22.9214C55.4425 25.1822 56.76 28.0485 56.76 31.6012C56.76 43.9951 48.8125 46.7403 41.2475 47.5477C42.48 48.557 43.5425 50.4948 43.5425 53.5226C43.5425 57.8423 43.5 61.3142 43.5 62.4042C43.5 63.252 44.1375 64.2613 45.8375 63.9383C52.5868 61.7738 58.4518 57.653 62.607 52.1565C66.7621 46.6595 68.998 40.0636 69 33.2968C69 15.4528 53.785 1 35 1Z" fill="white" stroke="black"/>
</svg>
